<?xml version="1.0" encoding="UTF-8"?> <svg xmlns="http://www.w3.org/2000/svg" width="658" height="613" viewBox="0 0 658 613" fill="none"> <path d="M471.63 466.007C475.094 466.006 478.465 467.133 481.232 469.218C483.999 471.302 486.014 474.23 486.97 477.56H456.289C457.246 474.23 459.26 471.302 462.027 469.218C464.795 467.133 468.165 466.006 471.63 466.007Z" fill="#6C7181"></path> <path d="M489.565 469.604C491.953 469.599 494.278 470.374 496.186 471.809C498.095 473.245 499.483 475.264 500.141 477.56H478.988C479.646 475.264 481.035 473.245 482.943 471.809C484.852 470.374 487.176 469.599 489.565 469.604V469.604Z" fill="#6C7181"></path> <path d="M466.768 477.56C464.695 470.413 456.549 465.125 446.782 465.125C437.016 465.125 428.869 470.437 426.82 477.56H466.768Z" fill="#6C7181"></path> <path d="M347.759 115.198C350.386 115.199 352.94 116.055 355.037 117.637C357.134 119.218 358.66 121.439 359.384 123.964H336.135C336.852 121.435 338.376 119.21 340.474 117.627C342.573 116.045 345.131 115.191 347.759 115.198V115.198Z" fill="white"></path> <path d="M291.164 111.148C295.033 111.152 298.795 112.414 301.884 114.743C304.974 117.071 307.222 120.341 308.291 124.059H274.037C275.099 120.337 277.346 117.063 280.437 114.733C283.527 112.403 287.294 111.145 291.164 111.148V111.148Z" fill="white"></path> <path d="M344.238 124.059C341.618 114.959 331.208 108.194 318.773 108.194C306.339 108.194 295.929 114.959 293.285 124.059H344.238Z" fill="white"></path> <path d="M121.346 530.537C117.849 533.014 114.79 536.057 112.295 539.542L112.033 539.137C109.794 535.563 107.268 531.585 104.196 527.393C108.021 525.241 111.452 522.454 114.343 519.151C117.419 515.527 119.786 511.358 121.323 506.859C117.113 509.062 113.35 512.026 110.222 515.602C107.439 518.896 105.225 522.631 103.672 526.655C101.289 523.177 98.4308 519.508 95.4532 515.887C98.5823 512.856 101.169 509.311 103.1 505.406C105.146 501.122 106.374 496.493 106.72 491.757C103.203 494.951 100.311 498.772 98.1926 503.024C96.4103 506.784 95.2441 510.805 94.7387 514.935C91.7373 511.29 88.4975 507.598 85.0197 503.953C87.6321 500.459 89.6447 496.555 90.9749 492.4C92.339 487.848 92.8399 483.082 92.4517 478.346C89.4721 482.051 87.2029 486.275 85.7582 490.804C84.5726 494.789 84.0416 498.94 84.186 503.096C81.8039 500.714 79.4219 498.332 76.7778 495.949C77.8814 491.741 78.2679 487.376 77.9211 483.039C77.469 478.307 76.1359 473.702 73.9906 469.461C72.6256 474.012 72.1168 478.778 72.4899 483.515C72.8654 487.325 73.8047 491.058 75.277 494.592C73.4667 492.972 71.5848 491.352 69.6554 489.828C67.5902 486.601 65.062 483.696 62.1517 481.204C58.4729 478.19 54.2641 475.887 49.7412 474.415C52.0041 478.597 55.0251 482.321 58.6502 485.397C61.5915 487.813 64.8747 489.78 68.3928 491.233C70.3937 492.853 72.3234 494.496 74.2052 496.188C70.0771 495.893 65.9283 496.255 61.9136 497.26C57.3278 498.51 53.0145 500.602 49.1934 503.429C53.9078 504.017 58.6905 503.718 63.2951 502.548C67.5507 501.396 71.5786 499.528 75.2055 497.021C77.8099 499.404 80.2952 501.786 82.6614 504.168C78.4516 505.074 74.4249 506.685 70.751 508.932C66.7268 511.435 63.2047 514.666 60.3652 518.46C65.047 517.65 69.538 515.978 73.6097 513.529C77.3207 511.196 80.6139 508.257 83.3523 504.835C86.9254 508.551 90.2841 512.338 93.3569 516.078C89.0989 516.6 84.9552 517.815 81.0895 519.675C76.8571 521.833 73.061 524.757 69.8935 528.298C74.6272 527.919 79.2483 526.659 83.5189 524.582C87.4131 522.596 90.9412 519.962 93.9525 516.793C96.9777 520.509 99.7409 524.153 102.266 527.655C98.0088 528.022 93.8407 529.085 89.9269 530.799C85.6147 532.801 81.7128 535.587 78.4213 539.018C83.1727 538.806 87.8426 537.707 92.1898 535.778C96.1193 533.936 99.7171 531.457 102.838 528.441C105.768 532.586 108.364 536.516 110.556 540.042L110.889 540.566C106.352 541.375 101.996 542.988 98.026 545.33C93.998 547.837 90.4686 551.067 87.6163 554.858C92.3063 554.051 96.8052 552.379 100.884 549.927C104.792 547.478 108.229 544.348 111.032 540.685C116.178 548.86 120.732 557.394 124.658 566.221L126.373 565.482C122.49 556.746 118.001 548.293 112.938 540.185C117.101 539.064 121.047 537.253 124.61 534.825C128.482 532.081 131.81 528.639 134.424 524.677C129.732 525.781 125.293 527.77 121.346 530.537V530.537Z" fill="#BFD2DB"></path> <path d="M204.34 525.987C198.336 528.441 192.788 531.888 187.928 536.183C187.928 535.945 187.761 535.706 187.69 535.468C185.617 529.441 183.116 522.7 180.162 515.506C186.529 513.641 192.536 510.718 197.932 506.859C203.694 502.563 208.606 497.232 212.415 491.138C205.461 492.927 198.902 495.997 193.073 500.189C187.85 504.101 183.311 508.85 179.638 514.244C177.256 508.288 174.374 502.024 171.206 495.592C176.847 492.188 181.872 487.855 186.07 482.776C190.546 477.149 193.931 470.734 196.05 463.863C189.786 467.384 184.23 472.036 179.662 477.584C175.726 482.545 172.621 488.112 170.467 494.067C167.299 487.66 163.773 481.133 159.891 474.558C164.948 470.331 169.257 465.282 172.635 459.623C176.187 453.377 178.553 446.529 179.614 439.423C173.951 443.842 169.16 449.279 165.488 455.454C162.386 460.918 160.182 466.846 158.962 473.01C156.317 468.603 153.507 464.196 150.505 459.861C153.577 454.039 155.647 447.742 156.627 441.233C157.583 434.077 157.187 426.804 155.46 419.794C151.894 426.035 149.519 432.885 148.457 439.994C147.702 445.735 147.814 451.557 148.79 457.264C146.646 454.247 144.431 451.246 142.144 448.26C140.206 442.797 137.469 437.651 134.021 432.991C129.646 427.276 124.241 422.428 118.085 418.698C119.99 425.618 123.155 432.127 127.423 437.898C130.94 442.451 135.105 446.464 139.786 449.808C142.168 452.873 144.463 455.978 146.67 459.122C140.688 457.263 134.448 456.37 128.185 456.478C121.001 456.754 113.932 458.37 107.342 461.242C114.089 463.718 121.238 464.914 128.423 464.768C135.048 464.505 141.581 463.12 147.742 460.671C150.744 465.054 153.578 469.453 156.246 473.867C149.727 473.736 143.231 474.686 137.023 476.678C130.219 479.009 123.91 482.587 118.419 487.231C125.593 487.655 132.783 486.734 139.619 484.515C145.885 482.334 151.74 479.112 156.937 474.987C160.963 481.705 164.583 488.398 167.847 494.973C161.389 494.279 154.862 494.657 148.528 496.092C141.552 497.807 134.959 500.812 129.09 504.954C136.226 506.011 143.497 505.728 150.529 504.12C156.941 502.526 163.038 499.86 168.561 496.235C171.753 502.714 174.588 509.051 177.089 515.054C170.7 514.151 164.206 514.304 157.866 515.506C150.827 516.97 144.122 519.733 138.095 523.653C145.178 524.996 152.45 524.996 159.533 523.653C165.956 522.303 172.107 519.888 177.732 516.507C180.639 523.653 183.116 530.275 185.141 536.206C185.141 536.516 185.355 536.802 185.45 537.088C178.472 536.779 171.495 537.715 164.845 539.851C158.051 542.185 151.75 545.764 146.265 550.404C153.44 550.827 160.63 549.906 167.465 547.688C174.071 545.416 180.212 541.97 185.593 537.517C190.372 551.322 194.153 565.452 196.908 579.799L199.719 579.322C196.976 565.122 193.251 551.13 188.571 537.445C195.096 537.21 201.536 535.89 207.628 533.539C214.275 530.818 220.357 526.884 225.564 521.938C218.298 521.943 211.098 523.317 204.34 525.987Z" fill="#BFD2DB"></path> <path d="M131.851 551.69C119.408 551.695 107.305 555.748 97.3696 563.239C87.4341 570.729 80.2061 581.249 76.7773 593.21H186.901C183.494 581.241 176.275 570.71 166.34 563.217C156.405 555.723 144.295 551.676 131.851 551.69V551.69Z" fill="#BFD2DB"></path> <path d="M67.418 564.554C58.8195 564.52 50.4449 567.293 43.5661 572.452C36.6872 577.611 31.6799 584.874 29.3047 593.139H105.293C102.929 584.914 97.9579 577.679 91.1271 572.524C84.2964 567.369 75.9758 564.572 67.418 564.554V564.554Z" fill="#BFD2DB"></path> <path d="M149.312 593.21C156.721 567.603 186.02 548.499 221.061 548.499C256.101 548.499 285.377 567.555 292.785 593.21H149.312Z" fill="#BFD2DB"></path> <path d="M557.289 518.389C558.017 521.91 559.863 525.102 562.553 527.488C564.443 524.425 565.279 520.828 564.936 517.245C564.201 513.721 562.346 510.528 559.647 508.146C557.778 511.216 556.95 514.809 557.289 518.389V518.389Z" fill="#E69BC3"></path> <path d="M540.97 536.469C542.272 539.831 544.629 542.681 547.687 544.592C549.066 541.262 549.317 537.572 548.402 534.087C547.111 530.724 544.75 527.878 541.684 525.987C540.323 529.313 540.072 532.989 540.97 536.469Z" fill="#E69BC3"></path> <path d="M581.771 509.456C578.805 511.499 576.595 514.463 575.482 517.888C579.039 518.442 582.679 517.814 585.845 516.102C588.8 514.037 591.006 511.07 592.133 507.645C588.574 507.115 584.939 507.75 581.771 509.456Z" fill="#E69BC3"></path> <path d="M572.723 526.273C569.184 525.603 565.524 526.096 562.289 527.679C564.382 530.611 567.377 532.777 570.817 533.848C574.358 534.511 578.018 534.01 581.25 532.419C579.16 529.49 576.163 527.33 572.723 526.273Z" fill="#E69BC3"></path> <path d="M558.215 543.067C554.676 542.396 551.016 542.889 547.781 544.472C549.875 547.404 552.869 549.571 556.309 550.642C559.85 551.305 563.511 550.804 566.743 549.213C564.646 546.29 561.651 544.132 558.215 543.067V543.067Z" fill="#E69BC3"></path> <path d="M527.176 583.229L528.224 583.562C531.303 574.29 535.292 565.345 540.134 556.859C544.601 548.883 549.92 541.415 555.999 534.587C562.569 527.129 570.428 520.916 579.2 516.245L578.7 515.268C569.807 519.993 561.841 526.288 555.189 533.848C549.047 540.741 543.671 548.281 539.158 556.335C534.29 564.884 530.277 573.893 527.176 583.229V583.229Z" fill="#E69BC3"></path> <path d="M509.882 487.588C512.157 491.511 515.654 494.582 519.839 496.33C520.854 491.906 520.394 487.272 518.529 483.134C516.202 479.234 512.675 476.192 508.476 474.463C507.514 478.875 508.007 483.48 509.882 487.588V487.588Z" fill="#E69BC3"></path> <path d="M497.925 515.864C500.856 519.324 504.837 521.733 509.263 522.724C509.529 518.195 508.307 513.703 505.785 509.932C502.852 506.469 498.873 504.053 494.447 503.048C494.194 507.583 495.413 512.079 497.925 515.864V515.864Z" fill="#E69BC3"></path> <path d="M535.421 466.84C532.75 470.502 531.345 474.934 531.419 479.465C535.88 478.648 539.953 476.399 543.02 473.058C545.692 469.388 547.097 464.948 547.021 460.409C542.56 461.24 538.489 463.497 535.421 466.84V466.84Z" fill="#E69BC3"></path> <path d="M531.492 490.614C526.974 491.248 522.79 493.348 519.582 496.592C523.287 499.211 527.744 500.549 532.278 500.404C536.797 499.755 540.979 497.647 544.189 494.401C540.484 491.785 536.025 490.454 531.492 490.614Z" fill="#E69BC3"></path> <path d="M521.145 516.578C516.625 517.224 512.442 519.332 509.234 522.581C512.949 525.196 517.415 526.526 521.955 526.368C526.473 525.734 530.657 523.634 533.865 520.39C530.152 517.771 525.686 516.433 521.145 516.578Z" fill="#E69BC3"></path> <path d="M500.784 577.321H502.165C502.086 564.941 503.219 552.582 505.548 540.423C507.525 529.091 510.72 518.006 515.076 507.36C519.824 495.776 526.618 485.141 535.133 475.964L534.133 475.011C525.495 484.311 518.604 495.092 513.79 506.835C509.334 517.566 506.051 528.748 503.999 540.185C501.709 552.428 500.632 564.867 500.784 577.321V577.321Z" fill="#E69BC3"></path> <path d="M578.583 563.029C588.214 563.032 597.583 566.169 605.275 571.966C612.967 577.763 618.564 585.905 621.222 595.163H535.943C538.594 585.901 544.189 577.755 551.883 571.957C559.576 566.159 568.949 563.025 578.583 563.029V563.029Z" fill="#E69BC3"></path> <path d="M628.462 572.867C635.127 572.85 641.616 575.006 646.946 579.008C652.276 583.009 656.156 588.639 658 595.044H599.139C600.972 588.674 604.821 583.07 610.107 579.072C615.394 575.074 621.834 572.897 628.462 572.867Z" fill="#E69BC3"></path> <path d="M565.098 595.044C559.381 575.225 536.68 560.432 509.548 560.432C482.416 560.432 459.739 575.225 453.998 595.044H565.098Z" fill="#E69BC3"></path> <path d="M83.041 578.012C89.4638 578.013 95.7115 580.106 100.839 583.974C105.966 587.842 109.695 593.275 111.459 599.451H54.6465C56.4067 593.277 60.1305 587.845 65.2539 583.977C70.3773 580.108 76.6213 578.014 83.041 578.012Z" fill="#6C7181"></path> <path d="M116.292 584.658C120.72 584.657 125.028 586.098 128.565 588.762C132.102 591.427 134.676 595.17 135.896 599.427H96.6875C97.9084 595.17 100.482 591.427 104.019 588.762C107.556 586.098 111.864 584.657 116.292 584.658V584.658Z" fill="#6C7181"></path> <path d="M74.035 599.427C70.2237 586.23 55.0976 576.368 37.0176 576.368C18.9376 576.368 3.81133 586.23 0 599.427H74.035Z" fill="#6C7181"></path> <path d="M303.312 561.79C292.616 561.792 282.213 565.282 273.68 571.73C265.147 578.178 258.95 587.233 256.027 597.521H350.596C347.67 587.235 341.471 578.183 332.939 571.735C324.407 565.288 314.006 561.796 303.312 561.79V561.79Z" fill="#E7E7E9"></path> <path d="M247.976 572.819C240.602 572.819 233.428 575.221 227.54 579.66C221.652 584.1 217.37 590.336 215.342 597.426H280.611C278.579 590.338 274.296 584.104 268.409 579.665C262.521 575.226 255.349 572.823 247.976 572.819V572.819Z" fill="#E7E7E9"></path> <path d="M318.297 597.426C324.657 575.439 349.812 559.027 379.897 559.027C409.983 559.027 435.162 575.439 441.498 597.426H318.297Z" fill="#E7E7E9"></path> <path d="M209.291 581.418C204.185 581.417 199.217 583.079 195.139 586.151C191.06 589.224 188.093 593.541 186.686 598.45H231.945C230.536 593.534 227.561 589.211 223.473 586.137C219.385 583.064 214.406 581.407 209.291 581.418V581.418Z" fill="#F7BDB6"></path> <path d="M182.853 586.683C179.326 586.682 175.896 587.83 173.08 589.953C170.265 592.077 168.218 595.06 167.25 598.45H198.431C197.468 595.061 195.426 592.079 192.614 589.956C189.803 587.832 186.376 586.683 182.853 586.683Z" fill="#F7BDB6"></path> <path d="M216.465 598.45C219.514 587.945 231.543 580.108 245.907 580.108C260.271 580.108 272.325 587.945 275.374 598.45H216.465Z" fill="#F7BDB6"></path> <path d="M332.502 524.915C331.668 521.771 330.334 520.032 327.738 519.484C327.047 519.347 326.336 519.35 325.646 519.492C324.956 519.635 324.302 519.914 323.723 520.314C323.143 520.714 322.649 521.226 322.271 521.82C321.893 522.414 321.638 523.078 321.52 523.772L307.823 605.477C307.765 605.786 307.768 606.102 307.832 606.409C307.896 606.716 308.02 607.008 308.197 607.267C308.374 607.526 308.601 607.747 308.864 607.918C309.126 608.09 309.421 608.207 309.729 608.264C310.036 608.335 310.353 608.343 310.663 608.29C310.973 608.237 311.27 608.123 311.536 607.955C311.801 607.787 312.031 607.567 312.212 607.31C312.392 607.052 312.52 606.761 312.588 606.454L313.397 602.952C329.167 548.212 334.717 535.944 332.502 524.915Z" fill="#F6D2BD"></path> <path d="M346.871 450.761C345.585 440.947 340.535 438.851 336.962 438.732L336.224 438.565C335.527 438.461 334.817 438.499 334.136 438.676C333.455 438.853 332.816 439.165 332.258 439.594C331.7 440.023 331.234 440.56 330.888 441.173C330.542 441.786 330.323 442.463 330.245 443.162L320.835 525.487C320.754 526.112 320.924 526.744 321.308 527.244C321.692 527.745 322.259 528.072 322.884 528.155C323.302 528.206 323.727 528.157 324.123 528.012C325.621 527.73 327.014 527.048 328.155 526.037C329.296 525.026 330.142 523.725 330.602 522.271C335.485 506.716 348.539 463.553 346.871 450.761Z" fill="#D9AE94"></path> <path d="M365.688 523.677C363.306 521.295 361.4 520.461 358.827 521.295C358.159 521.512 357.541 521.861 357.009 522.321C356.478 522.781 356.043 523.343 355.733 523.974C355.422 524.604 355.241 525.291 355.199 525.992C355.158 526.694 355.258 527.397 355.492 528.06L383.41 606.073C383.616 606.67 384.05 607.16 384.618 607.437C385.185 607.714 385.839 607.755 386.436 607.55C387.038 607.368 387.543 606.955 387.842 606.402C388.141 605.849 388.21 605.199 388.032 604.596L387.055 601.142C374.192 545.759 373.001 532.348 365.688 523.677Z" fill="#F6D2BD"></path> <path d="M360.185 448.403C356.278 439.303 350.895 438.684 347.393 439.518C347.147 439.494 346.9 439.494 346.655 439.518C345.956 439.608 345.282 439.837 344.674 440.193C344.065 440.548 343.534 441.021 343.112 441.586C342.69 442.15 342.385 442.793 342.216 443.477C342.048 444.161 342.018 444.872 342.129 445.568L355.421 527.345C355.509 527.971 355.842 528.535 356.347 528.915C356.852 529.295 357.487 529.458 358.112 529.37C358.532 529.302 358.932 529.139 359.28 528.894C360.66 528.231 361.833 527.204 362.673 525.924C363.512 524.643 363.987 523.158 364.044 521.628C364.425 505.335 365.282 460.242 360.185 448.403Z" fill="#D9AE94"></path> <path d="M384.885 605.716C383.434 605.761 381.988 605.535 380.621 605.049C374.404 605.93 361.755 608.836 362.136 611.933C362.303 613.076 386.981 612.338 388.696 612.147C389.887 612.004 389.411 608.431 389.006 606.335C388.948 606.051 388.781 605.801 388.54 605.641C388.299 605.48 388.004 605.421 387.719 605.477C386.783 605.637 385.835 605.717 384.885 605.716V605.716Z" fill="#3C3E54"></path> <path d="M309.877 605.716C308.427 605.761 306.98 605.535 305.613 605.049C299.396 605.93 286.747 608.836 287.152 611.933C287.295 613.076 311.973 612.338 313.688 612.147C314.879 612.004 314.403 608.431 313.998 606.335C313.941 606.051 313.773 605.801 313.532 605.641C313.291 605.48 312.996 605.421 312.712 605.477C311.775 605.637 310.827 605.717 309.877 605.716V605.716Z" fill="#3C3E54"></path> <path d="M355.564 424.415C355.564 424.415 347.561 476.273 332.839 520.89C332.839 520.89 340.2 538.065 316.665 593.948H307.828C307.828 593.948 320.095 522.843 320.572 516.959C321.048 511.076 328.909 436.54 330.386 432.634L355.564 424.415Z" fill="#2D334A"></path> <path d="M361.277 434.587C361.277 434.587 366.661 461.552 365.684 520.89C365.684 520.89 378.929 535.182 386.766 593.472L377.452 593.948C377.452 593.948 353.44 528.25 352.94 525.296C352.44 522.343 336.766 432.634 336.766 432.634L361.277 434.587Z" fill="#2D334A"></path> <path d="M266.833 318.222C266.038 318.797 265.121 319.179 264.153 319.336C263.185 319.493 262.194 319.422 261.259 319.127C256.494 317.627 247.3 314.506 246.037 311.624C244.322 307.67 260.544 310.123 267.762 317.579L266.833 318.222Z" fill="#F6D2BD"></path> <path d="M343.798 368.389C350.635 367.317 348.991 361.624 349.015 361.457C349.277 359.385 346.18 356.693 343.631 356.693L287.152 357.026C286.223 357.026 283.841 359.766 283.722 360.671C283.637 360.95 283.637 361.249 283.722 361.528C284.175 363.625 288.486 364.387 290.63 364.792C301.373 366.745 334.889 369.747 343.798 368.389Z" fill="#89AEBC"></path> <path d="M262.998 319.104C266.214 330.466 276.886 354.025 281.435 359.932C285.199 364.863 288.129 362.505 288.296 362.434C289.273 361.797 290.003 360.844 290.363 359.734C290.723 358.624 290.691 357.425 290.273 356.336L268.119 316.769L262.998 319.104Z" fill="#89AEBC"></path> <path d="M434.053 332.515C434.92 332.972 435.88 333.222 436.859 333.247C437.838 333.272 438.81 333.07 439.699 332.658C444.32 330.514 452.895 326.155 453.753 323.129C454.92 318.961 439.175 323.606 433.053 331.967L434.053 332.515Z" fill="#F6D2BD"></path> <path d="M350.799 366.888C344.129 365.006 346.463 359.551 346.463 359.361C346.463 357.288 349.87 355.097 352.395 355.311L408.421 362.696C409.326 362.696 411.351 365.84 411.351 366.745C411.356 367.038 411.282 367.326 411.137 367.579C410.422 369.604 406.063 369.818 403.99 369.961C393.152 370.581 359.446 369.366 350.799 366.888Z" fill="#89AEBC"></path> <path d="M439.15 332.705C433.243 342.901 417.14 363.125 411.28 367.77C406.397 371.605 404.134 368.603 404.015 368.508C403.219 367.651 402.743 366.547 402.665 365.38C402.587 364.214 402.912 363.056 403.586 362.1L434.767 329.156L439.15 332.705Z" fill="#89AEBC"></path> <path d="M349.587 363.22C346.895 380.752 354.208 395.902 349.587 413.934C347.205 415.864 344.823 417.627 342.441 419.437C340.964 416.698 339.487 414.006 338.272 411.124C345.418 393.949 341.417 379.347 346.085 362.815L349.587 363.22Z" fill="#8AB0BD"></path> <path d="M320.428 444.377C320.505 444.481 320.606 444.565 320.722 444.623C320.838 444.681 320.965 444.711 321.095 444.711C327.765 446.116 334.291 443.448 336.388 436.564C336.84 435.111 337.174 433.11 337.579 431.609C337.579 433.396 337.078 435.778 337.126 437.493C337.341 442.805 340.914 445.807 345.987 446.521C352.49 447.426 359.137 447.879 365.687 448.546C363.686 424.439 366.664 397.998 367.069 373.987C367.406 370.444 367.058 366.87 366.045 363.458C364.496 358.527 362.162 356.907 358.279 354.573C357.722 354.254 357.106 354.052 356.469 353.977C352.101 353.159 347.586 353.838 343.653 355.907C343.081 356.127 342.55 356.441 342.081 356.836C341.89 357.003 341.723 356.717 341.438 357.169C337.364 363.553 336.054 362.291 336.221 371.914C336.578 395.926 326.931 420.938 320.428 444.377Z" fill="#89AEBC"></path> <path d="M342.057 356.74C342.415 361.29 342.844 364.482 343.415 369.294C343.987 374.106 344.702 380.585 344.964 385.754C347.06 380.585 348.87 375.345 350.657 370.009C352.443 364.673 354.301 359.194 356.445 353.953C352.07 353.177 347.56 353.855 343.606 355.883C343.129 356.121 342.534 356.502 342.057 356.74Z" fill="#D7E3E8"></path> <path d="M343.391 369.127C344.034 374.678 344.654 380.204 344.963 385.802C347.06 380.609 348.87 375.345 350.656 370.033C350.275 366.674 351.109 363.244 350.656 359.861C349.656 359.861 348.417 359.647 347.417 359.694C346.464 362.696 344.439 366.102 343.391 369.127Z" fill="#EE7078"></path> <path d="M344.248 387.565C348.798 376.393 352.109 364.744 356.683 353.596C357.85 356.359 359.065 359.123 360.256 361.886L355.158 365.483C356.397 367.079 357.54 368.675 358.874 370.247C354.015 376.131 349.227 381.991 344.248 387.565Z" fill="#2D334A"></path> <path d="M346.25 392.21C345.464 379.99 343.225 367.984 341.939 355.835C340.176 358.217 338.437 360.599 336.698 362.839L340.843 367.603L336.436 371.009C340.057 377.981 343.328 385.048 346.25 392.21Z" fill="#2D334A"></path> <path d="M359.586 426.393L347.675 426.035C347.675 425.726 347.675 425.416 347.675 425.106L359.586 425.44C359.633 425.773 359.61 426.083 359.586 426.393Z" fill="#2D334A"></path> <path d="M343.176 398.189C343.178 398.029 343.214 397.872 343.28 397.726C343.346 397.581 343.441 397.451 343.559 397.343C343.678 397.236 343.817 397.154 343.968 397.103C344.119 397.052 344.279 397.032 344.438 397.045C344.598 397.045 344.755 397.077 344.902 397.14C345.048 397.203 345.18 397.296 345.29 397.412C345.399 397.528 345.484 397.665 345.538 397.815C345.592 397.965 345.615 398.125 345.605 398.284C345.603 398.444 345.567 398.601 345.501 398.746C345.435 398.892 345.34 399.022 345.222 399.129C345.104 399.236 344.964 399.318 344.813 399.369C344.662 399.421 344.502 399.44 344.343 399.427C344.184 399.424 344.028 399.39 343.883 399.325C343.738 399.261 343.608 399.169 343.499 399.053C343.39 398.938 343.306 398.802 343.25 398.654C343.195 398.505 343.169 398.347 343.176 398.189V398.189Z" fill="#FAC562"></path> <path d="M341.149 410.576C341.173 410.257 341.322 409.962 341.562 409.752C341.803 409.543 342.117 409.436 342.435 409.456C342.59 409.455 342.744 409.487 342.887 409.549C343.029 409.611 343.157 409.703 343.262 409.817C343.368 409.931 343.448 410.066 343.498 410.213C343.549 410.36 343.568 410.516 343.555 410.671C343.546 410.829 343.505 410.985 343.435 411.127C343.365 411.27 343.267 411.397 343.147 411.502C343.028 411.606 342.888 411.685 342.737 411.735C342.586 411.785 342.427 411.803 342.268 411.79C342.112 411.795 341.956 411.765 341.812 411.705C341.668 411.644 341.538 411.553 341.432 411.438C341.326 411.323 341.246 411.186 341.197 411.037C341.148 410.889 341.132 410.731 341.149 410.576V410.576Z" fill="#FAC562"></path> <path d="M338.793 422.724C338.824 422.4 338.981 422.1 339.23 421.89C339.48 421.681 339.802 421.578 340.127 421.605C340.284 421.603 340.439 421.635 340.582 421.699C340.726 421.763 340.854 421.857 340.958 421.974C341.061 422.092 341.139 422.23 341.185 422.38C341.23 422.53 341.243 422.688 341.223 422.843C341.187 423.165 341.029 423.461 340.78 423.67C340.532 423.878 340.213 423.983 339.889 423.963C339.732 423.964 339.577 423.932 339.434 423.868C339.291 423.804 339.163 423.711 339.059 423.593C338.955 423.476 338.878 423.337 338.832 423.187C338.786 423.037 338.773 422.88 338.793 422.724Z" fill="#FAC562"></path> <path d="M334.722 347.093C334.666 344.695 335.516 342.364 337.104 340.566C339.652 337.946 339.652 341.853 339.652 341.853L334.722 347.093Z" fill="#2D334A"></path> <path d="M358.922 346.259C358.66 346.545 354.158 352.119 353.109 351.905C351.585 351.595 353.586 346.807 353.586 346.807L358.922 346.259Z" fill="#2D334A"></path> <path d="M341.871 331.967C341.723 330.995 341.771 330.003 342.012 329.049C342.253 328.096 342.683 327.201 343.276 326.417C345.134 324.606 348.04 322.963 355.735 327.227C356.277 327.516 356.699 327.988 356.926 328.56C357.153 329.131 357.17 329.764 356.973 330.347L355.878 333.777L341.871 331.967Z" fill="#2D334A"></path> <path d="M355.606 343.02C353.224 347.784 351.009 351.476 347.221 352.548C345.73 352.99 344.156 353.08 342.624 352.81C341.468 352.618 340.355 352.223 339.337 351.643C338.133 351.099 337.124 350.201 336.443 349.069C335.762 347.937 335.442 346.625 335.525 345.306C336.108 341.655 337.36 338.142 339.218 334.944C342.862 327.536 348.365 325.559 352.891 327.798C357.417 330.037 359.251 335.635 355.606 343.02Z" fill="#F6D2BD"></path> <path d="M356.922 341.805L348.37 340.471C347.513 345.992 346.996 351.561 346.822 357.146C347.06 358.456 349.204 359.17 351.586 358.742C353.968 358.313 355.302 357.169 355.421 355.978C355.635 351.228 356.136 346.495 356.922 341.805V341.805Z" fill="#F6D2BD"></path> <path d="M358.542 346.617C357.818 346.553 357.124 346.299 356.53 345.881C355.936 345.462 355.463 344.895 355.159 344.235C353.823 340.563 353.271 336.651 353.539 332.753C353.944 328.322 355.493 327.608 355.493 327.608C355.493 327.608 363.187 330.823 364.021 334.015C365.235 338.732 358.542 346.617 358.542 346.617Z" fill="#2D334A"></path> <path d="M354.708 338.136L349.42 348.951C349.145 349.51 348.711 349.975 348.173 350.288C347.635 350.602 347.016 350.75 346.395 350.714H344.942C344.733 350.703 344.529 350.646 344.345 350.546C344.161 350.447 344.002 350.308 343.878 350.139C343.755 349.97 343.671 349.776 343.633 349.57C343.594 349.365 343.602 349.153 343.655 348.951L344.251 346.569C344.319 346.308 344.3 346.032 344.197 345.782C344.094 345.533 343.912 345.324 343.679 345.187L338.915 342.424C338.67 342.275 338.381 342.217 338.097 342.26C337.814 342.304 337.555 342.446 337.366 342.662L335.723 344.449C335.345 344.867 335.061 345.36 334.89 345.897C334.719 346.433 334.664 347 334.729 347.559C334.795 348.119 334.979 348.657 335.269 349.14C335.56 349.622 335.95 350.037 336.414 350.357L339.177 352.215C339.764 352.622 340.443 352.876 341.154 352.953H341.392H342.536L346.204 353.167C347.303 353.223 348.395 352.955 349.344 352.396C350.293 351.837 351.056 351.012 351.54 350.023L356.828 339.208L354.708 338.136Z" fill="#2D334A"></path> <path d="M358.825 344.854C358.063 346.45 355.466 347.736 354.299 347.236C353.132 346.736 353.465 345.211 354.299 343.615C355.133 342.019 356.681 340.947 357.92 341.519C358.204 341.672 358.455 341.882 358.656 342.135C358.857 342.388 359.004 342.68 359.089 342.992C359.173 343.304 359.194 343.63 359.148 343.95C359.103 344.27 358.993 344.578 358.825 344.854Z" fill="#F6D2BD"></path> <path d="M354.823 331.252L350.059 328.87C348.452 328.087 346.614 327.917 344.89 328.394L342.508 329.037L346.891 325.631L351.441 326.035L356.205 328.751L354.823 331.252Z" fill="#2D334A"></path> <path d="M170.236 406.663C133.051 366.727 112.415 314.189 112.492 259.65C112.452 231.247 118.031 203.117 128.909 176.875C139.787 150.633 155.75 126.798 175.879 106.738C195.962 86.6306 219.825 70.686 246.097 59.8203C272.368 48.9546 300.531 43.382 328.966 43.4226C357.397 43.3838 385.555 48.9574 411.822 59.8231C438.09 70.6888 461.949 86.6324 482.028 106.738C502.175 126.79 518.156 150.622 529.05 176.864C539.945 203.106 545.539 231.241 545.511 259.65C545.607 315.115 524.284 368.481 485.981 408.637" stroke="#464B5F" stroke-miterlimit="10" stroke-dasharray="11.96 11.96"></path> <path d="M383.016 47.4272C383.019 53.6438 381.797 59.8001 379.419 65.5441C377.042 71.2881 373.556 76.5072 369.16 80.903C364.764 85.2988 359.545 88.7851 353.801 91.1626C348.057 93.5402 341.9 94.7623 335.684 94.7592C327.859 94.7637 320.155 92.8271 313.263 89.123C306.37 85.4189 300.503 80.0629 296.189 73.5348C291.043 65.7675 288.316 56.649 288.352 47.3319C288.352 34.7787 293.339 22.7397 302.215 13.8632C311.092 4.98676 323.131 0 335.684 0C347.072 0.00527855 358.073 4.13479 366.651 11.6246C371.796 16.0614 375.923 21.5576 378.747 27.7369C381.572 33.9163 383.028 40.633 383.016 47.4272V47.4272Z" fill="#F7A611"></path> <path d="M374.533 37.8275C374.533 50.3807 369.546 62.4197 360.67 71.2962C351.793 80.1726 339.754 85.1594 327.201 85.1594C315.813 85.1541 304.812 81.0246 296.234 73.5348C291.088 65.7675 288.361 56.649 288.397 47.3319C288.397 34.7787 293.384 22.7397 302.26 13.8632C311.137 4.98676 323.176 0 335.729 0C347.117 0.00527855 358.117 4.13479 366.696 11.6246C371.841 19.3919 374.569 28.5104 374.533 37.8275V37.8275Z" fill="#FAB83A"></path> <path d="M335.684 67.5559C327.547 67.6123 319.54 65.5079 312.482 61.4577C317.39 70.5335 325.941 76.5601 335.684 76.5601C345.427 76.5601 353.979 70.5335 358.886 61.4577C351.828 65.5079 343.821 67.6123 335.684 67.5559V67.5559Z" fill="#393E56"></path> <path d="M350.187 41.4483C352.173 41.4483 353.784 38.9953 353.784 35.9695C353.784 32.9436 352.173 30.4907 350.187 30.4907C348.2 30.4907 346.59 32.9436 346.59 35.9695C346.59 38.9953 348.2 41.4483 350.187 41.4483Z" fill="#393E56"></path> <path d="M321.177 41.4483C323.164 41.4483 324.774 38.9953 324.774 35.9695C324.774 32.9436 323.164 30.4907 321.177 30.4907C319.19 30.4907 317.58 32.9436 317.58 35.9695C317.58 38.9953 319.19 41.4483 321.177 41.4483Z" fill="#393E56"></path> <path d="M247.833 98.5228C247.85 104.368 246.759 110.164 244.617 115.602C241.184 124.35 235.197 131.86 227.434 137.154C219.671 142.449 210.492 145.281 201.096 145.283C191.699 145.281 182.521 142.449 174.758 137.154C166.995 131.86 161.008 124.35 157.576 115.602C155.426 110.165 154.327 104.37 154.336 98.5228C154.336 92.3833 155.546 86.304 157.896 80.6321C160.246 74.9602 163.691 69.807 168.033 65.4668C172.375 61.1266 177.531 57.6845 183.204 55.3371C188.877 52.9898 194.956 51.7833 201.096 51.7864C207.234 51.7833 213.313 52.99 218.985 55.3376C224.657 57.6852 229.81 61.1277 234.151 65.4682C238.491 69.8087 241.934 74.9621 244.281 80.6339C246.629 86.3056 247.836 92.3844 247.833 98.5228V98.5228Z" fill="#A2BFCA"></path> <path d="M201.095 145.307C225.131 145.307 244.615 132.029 244.615 115.65C244.615 99.271 225.131 85.9931 201.095 85.9931C177.059 85.9931 157.574 99.271 157.574 115.65C157.574 132.029 177.059 145.307 201.095 145.307Z" fill="#FAC258"></path> <path d="M201.097 121.248C206.459 121.346 211.577 123.504 215.39 127.275C212.364 118.294 207.076 112.339 201.097 112.339C195.118 112.339 189.806 118.294 186.805 127.275C190.618 123.504 195.736 121.346 201.097 121.248V121.248Z" fill="#393E56"></path> <path d="M222.081 75.2023C218.867 74.147 215.832 72.6132 213.076 70.6525C213.544 72.5594 214.454 74.3293 215.733 75.8191C217.012 77.3089 218.623 78.4767 220.437 79.228C222.308 79.7088 224.265 79.7437 226.151 79.33C228.038 78.9163 229.801 78.0654 231.299 76.8459C228.165 76.7241 225.063 76.1711 222.081 75.2023V75.2023Z" fill="#393E56"></path> <path d="M180.133 75.2023C183.346 74.147 186.381 72.6132 189.137 70.6525C188.665 72.561 187.751 74.3317 186.468 75.8215C185.185 77.3112 183.57 78.4781 181.752 79.228C179.885 79.7068 177.932 79.7407 176.05 79.3269C174.167 78.9132 172.408 78.0634 170.914 76.8459C174.048 76.7241 177.15 76.1711 180.133 75.2023Z" fill="#393E56"></path> <path d="M215.415 92.7582C217.375 92.7582 218.964 90.3373 218.964 87.3509C218.964 84.3645 217.375 81.9436 215.415 81.9436C213.454 81.9436 211.865 84.3645 211.865 87.3509C211.865 90.3373 213.454 92.7582 215.415 92.7582Z" fill="#393E56"></path> <path d="M186.754 92.7582C188.715 92.7582 190.304 90.3373 190.304 87.3509C190.304 84.3645 188.715 81.9436 186.754 81.9436C184.794 81.9436 183.205 84.3645 183.205 87.3509C183.205 90.3373 184.794 92.7582 186.754 92.7582Z" fill="#393E56"></path> <path d="M217.438 107.765C217.438 103.93 224.345 95.0927 224.345 95.0927C224.345 95.0927 231.277 103.93 231.277 107.765C231.277 108.675 231.098 109.575 230.749 110.414C230.401 111.254 229.89 112.017 229.246 112.658C228.602 113.3 227.837 113.809 226.996 114.154C226.155 114.5 225.254 114.676 224.345 114.673C222.513 114.673 220.756 113.946 219.461 112.65C218.165 111.355 217.437 109.597 217.438 107.765V107.765Z" fill="#93B5C2"></path> <path d="M516.174 100.167C516.178 106.394 514.954 112.56 512.573 118.314C510.192 124.068 506.701 129.297 502.299 133.701C497.897 138.106 492.67 141.599 486.917 143.983C481.164 146.367 474.998 147.594 468.771 147.594C461.796 147.604 454.905 146.071 448.592 143.106C442.279 140.141 436.7 135.817 432.254 130.443C425.189 121.937 421.329 111.224 421.344 100.167C421.344 93.9395 422.571 87.7734 424.954 82.0206C427.338 76.2678 430.832 71.041 435.236 66.6389C439.641 62.2368 444.869 58.7456 450.623 56.3647C456.377 53.9839 462.544 52.7601 468.771 52.7632C479.96 52.7479 490.791 56.7072 499.333 63.9352C504.612 68.3812 508.855 73.928 511.764 80.1868C514.673 86.4455 516.179 93.2648 516.174 100.167V100.167Z" fill="#F7A611"></path> <path d="M510.311 94.1876C510.311 106.766 505.315 118.829 496.42 127.724C487.526 136.618 475.463 141.615 462.884 141.615C451.696 141.626 440.866 137.667 432.322 130.443C425.257 121.937 421.397 111.224 421.412 100.167C421.412 93.9395 422.639 87.7734 425.023 82.0206C427.407 76.2678 430.9 71.041 435.305 66.6389C439.709 62.2368 444.938 58.7456 450.692 56.3647C456.446 53.9839 462.612 52.7601 468.839 52.7632C480.029 52.7479 490.86 56.7072 499.401 63.9352C506.47 72.4298 510.331 83.1367 510.311 94.1876V94.1876Z" fill="#FAB83A"></path> <path d="M468.744 103.287C458.884 103.334 449.288 100.099 441.469 94.0923C441.469 95.2119 441.469 96.3314 441.469 97.4748C441.469 119.652 453.737 137.637 468.839 137.637C483.941 137.637 496.233 119.652 496.233 97.4748C496.233 96.3314 496.233 95.2119 496.233 94.0923C488.353 100.139 478.676 103.376 468.744 103.287V103.287Z" fill="#393E56"></path> <path d="M498.521 92.5916C495.495 90.2095 492.875 79.0852 492.875 79.0852C492.875 79.0852 504.261 79.0852 507.287 81.634C508.711 82.816 509.621 84.5044 509.825 86.3438C510.029 88.1831 509.512 90.0301 508.382 91.4959C507.2 92.9199 505.512 93.8299 503.673 94.0343C501.833 94.2387 499.986 93.7215 498.521 92.5916V92.5916Z" fill="white"></path> <path d="M430.583 82.4916C433.275 79.7045 444.566 78.1562 444.566 78.1562C444.566 78.1562 443.327 89.471 440.636 92.2581C439.996 92.9215 439.232 93.4518 438.387 93.8183C437.541 94.1848 436.632 94.3804 435.711 94.3936C434.789 94.4069 433.875 94.2377 433.019 93.8957C432.164 93.5537 431.384 93.0457 430.726 92.401C430.063 91.7617 429.532 90.9973 429.166 90.1521C428.799 89.3068 428.604 88.3973 428.591 87.4761C428.577 86.5548 428.747 85.6401 429.089 84.7846C429.431 83.9291 429.939 83.1498 430.583 82.4916V82.4916Z" fill="white"></path> <path d="M484.612 79.0138C482.335 79.0182 480.074 78.648 477.918 77.918C478.854 79.2887 480.088 80.4295 481.528 81.2546C482.967 82.0798 484.576 82.5679 486.231 82.6822C489.995 82.6822 493.378 80.0381 496.236 75.5359C492.784 77.8043 488.743 79.0132 484.612 79.0138Z" fill="#393E56"></path> <path d="M454.952 78.9899C457.623 78.9871 460.276 78.5609 462.813 77.7274C461.705 79.321 460.251 80.6435 458.56 81.5963C456.869 82.5491 454.984 83.1076 453.047 83.23C448.616 83.23 444.543 80.1333 441.279 74.9166C445.344 77.5743 450.096 78.9898 454.952 78.9899Z" fill="#393E56"></path> <path d="M585.993 220.128C586.001 225.98 584.91 231.782 582.777 237.232C579.34 245.978 573.347 253.486 565.579 258.776C557.812 264.066 548.631 266.893 539.233 266.888C530.296 266.893 521.544 264.335 514.017 259.518C506.489 254.701 500.5 247.826 496.76 239.709C496.379 238.899 496.022 238.065 495.688 237.327C493.556 231.877 492.465 226.076 492.473 220.223C492.473 214.084 493.682 208.005 496.033 202.333C498.383 196.661 501.827 191.508 506.17 187.167C510.512 182.827 515.667 179.385 521.34 177.038C527.013 174.691 533.093 173.484 539.233 173.487C545.897 173.478 552.487 174.898 558.556 177.651C564.625 180.404 570.033 184.426 574.416 189.447C581.875 197.928 585.99 208.834 585.993 220.128V220.128Z" fill="#8DB1BF"></path> <path d="M578.704 208.932C578.721 214.778 577.63 220.573 575.488 226.012C572.059 234.77 566.07 242.291 558.303 247.594C550.535 252.897 541.349 255.736 531.944 255.74C525.277 255.747 518.687 254.323 512.618 251.566C506.549 248.808 501.141 244.781 496.76 239.756C496.379 238.947 496.022 238.113 495.688 237.374C493.556 231.925 492.465 226.123 492.473 220.271C492.473 214.132 493.682 208.052 496.033 202.38C498.383 196.708 501.827 191.555 506.17 187.215C510.512 182.875 515.667 179.433 521.34 177.085C527.013 174.738 533.093 173.531 539.233 173.535C545.897 173.525 552.487 174.945 558.556 177.698C564.625 180.451 570.033 184.474 574.416 189.495C577.236 195.587 578.699 202.219 578.704 208.932V208.932Z" fill="#A2BFCA"></path> <path d="M560.198 194.497C557.133 193.965 554.12 193.168 551.193 192.115C552.061 193.302 553.165 194.295 554.436 195.033C555.707 195.771 557.117 196.238 558.578 196.403C562.23 196.918 565.952 196.525 569.416 195.259C566.33 195.211 563.25 194.957 560.198 194.497V194.497Z" fill="#393E56"></path> <path d="M518.27 194.497C521.335 193.968 524.348 193.17 527.274 192.115C526.406 193.302 525.302 194.295 524.031 195.033C522.76 195.771 521.35 196.238 519.889 196.403C516.237 196.917 512.515 196.524 509.051 195.259C512.137 195.211 515.217 194.957 518.27 194.497Z" fill="#393E56"></path> <path d="M553.551 208.932C555.512 208.932 557.101 206.512 557.101 203.525C557.101 200.539 555.512 198.118 553.551 198.118C551.591 198.118 550.002 200.539 550.002 203.525C550.002 206.512 551.591 208.932 553.551 208.932Z" fill="#393E56"></path> <path d="M524.891 208.932C526.851 208.932 528.44 206.512 528.44 203.525C528.44 200.539 526.851 198.118 524.891 198.118C522.931 198.118 521.342 200.539 521.342 203.525C521.342 206.512 522.931 208.932 524.891 208.932Z" fill="#393E56"></path> <path d="M539.234 260.028C546.325 260.028 552.073 250.387 552.073 238.494C552.073 226.601 546.325 216.96 539.234 216.96C532.143 216.96 526.395 226.601 526.395 238.494C526.395 250.387 532.143 260.028 539.234 260.028Z" fill="#393E56"></path> <path d="M177.313 227.708C181.491 201.97 164.013 177.718 138.275 173.54C112.537 169.362 88.2855 186.84 84.1077 212.578C79.9298 238.316 97.4078 262.568 123.146 266.746C148.884 270.924 173.136 253.446 177.313 227.708Z" fill="#F9C96C"></path> <path d="M130.845 243.83C122.732 243.895 114.749 241.798 107.715 237.756C112.479 246.808 121.126 252.834 130.845 252.834C140.564 252.834 149.092 246.808 153.975 237.756C146.941 241.798 138.957 243.895 130.845 243.83V243.83Z" fill="#393E56"></path> <path d="M120.82 189.971C119.675 188.827 118.249 188.004 116.685 187.586C115.121 187.168 113.474 187.169 111.911 187.589C105.813 189.233 102.788 199.499 102.788 199.499C102.788 199.499 95.022 192.139 88.9238 193.782C84.9696 194.854 80.2771 198.951 82.54 207.598C83.0857 209.635 84.258 211.448 85.891 212.782C87.524 214.116 89.5349 214.903 91.6395 215.031C94.4388 215.384 97.2764 215.296 100.048 214.769C104.503 213.935 108.338 220.104 108.338 220.104C108.338 220.104 108.576 212.839 112.84 211.314C117.104 209.79 126.847 205.145 124.369 196.331C123.782 193.93 122.555 191.732 120.82 189.971V189.971Z" fill="#EA555E"></path> <path d="M141.09 189.971C142.235 188.827 143.661 188.004 145.225 187.586C146.789 187.168 148.436 187.169 149.999 187.589C156.097 189.233 159.122 199.499 159.122 199.499C159.122 199.499 166.888 192.139 173.01 193.782C176.941 194.854 181.633 198.951 179.37 207.598C178.824 209.635 177.652 211.448 176.019 212.782C174.386 214.116 172.375 214.903 170.271 215.031C167.471 215.383 164.634 215.295 161.862 214.769C157.407 213.935 153.572 220.104 153.572 220.104C153.572 220.104 153.358 212.839 149.094 211.314C144.83 209.79 135.087 205.145 137.541 196.331C138.148 193.937 139.371 191.744 141.09 189.971V189.971Z" fill="#EA555E"></path> <path d="M212.815 362.934C212.815 375.569 207.795 387.687 198.861 396.622C189.926 405.556 177.808 410.576 165.173 410.576C158.412 410.587 151.727 409.154 145.565 406.373C139.403 403.591 133.906 399.526 129.442 394.449V394.449C121.752 385.763 117.514 374.559 117.531 362.958C117.531 350.323 122.551 338.205 131.485 329.27C140.42 320.336 152.538 315.316 165.173 315.316C175.486 315.289 185.524 318.635 193.758 324.845C199.672 329.28 204.472 335.03 207.78 341.641C211.087 348.252 212.811 355.542 212.815 362.934V362.934Z" fill="#EA555E"></path> <path d="M205.575 356.145C205.575 368.78 200.555 380.898 191.621 389.833C182.686 398.767 170.568 403.787 157.933 403.787C147.62 403.814 137.581 400.468 129.348 394.258V394.258C121.658 385.572 117.421 374.368 117.438 362.767C117.438 350.132 122.457 338.014 131.392 329.079C140.326 320.145 152.444 315.126 165.079 315.126C175.392 315.098 185.431 318.444 193.664 324.654C201.335 333.351 205.569 344.548 205.575 356.145V356.145Z" fill="#EF7B83"></path> <path d="M165.174 380.514C169.602 380.638 173.958 381.669 177.973 383.541C181.988 385.413 185.577 388.088 188.519 391.4C183.588 375.202 174.988 364.458 165.174 364.458C155.36 364.458 146.784 375.202 141.854 391.4C144.793 388.09 148.378 385.418 152.388 383.545C156.399 381.673 160.75 380.642 165.174 380.514V380.514Z" fill="#393E56"></path> <path d="M150.45 348.427C149.539 348.054 148.648 347.633 147.782 347.164C147.228 348.239 146.949 349.434 146.972 350.642C146.972 353.691 148.592 356.145 150.593 356.145C152.594 356.145 154.214 353.763 154.214 350.642C154.238 350.309 154.238 349.975 154.214 349.642C152.933 349.323 151.676 348.917 150.45 348.427V348.427Z" fill="#393E56"></path> <path d="M178.989 348.427C179.9 348.054 180.791 347.633 181.657 347.164C182.2 348.243 182.478 349.435 182.467 350.642C182.467 353.691 180.847 356.145 178.846 356.145C176.845 356.145 175.225 353.763 175.225 350.642C175.201 350.309 175.201 349.975 175.225 349.642C176.505 349.319 177.763 348.913 178.989 348.427V348.427Z" fill="#393E56"></path> <path d="M509.051 408.122C534.942 408.122 555.931 387.133 555.931 361.243C555.931 335.352 534.942 314.363 509.051 314.363C483.16 314.363 462.172 335.352 462.172 361.243C462.172 387.133 483.16 408.122 509.051 408.122Z" fill="#9A9999"></path> <path d="M523.419 355.311C525.392 355.311 526.992 352.89 526.992 349.904C526.992 346.917 525.392 344.497 523.419 344.497C521.445 344.497 519.846 346.917 519.846 349.904C519.846 352.89 521.445 355.311 523.419 355.311Z" fill="#393E56"></path> <path d="M494.688 355.311C496.662 355.311 498.261 352.89 498.261 349.904C498.261 346.917 496.662 344.497 494.688 344.497C492.715 344.497 491.115 346.917 491.115 349.904C491.115 352.89 492.715 355.311 494.688 355.311Z" fill="#393E56"></path> <path d="M522.702 371.557H495.404C490.931 371.557 487.305 375.183 487.305 379.656V380.657C487.305 385.13 490.931 388.756 495.404 388.756H522.702C527.175 388.756 530.801 385.13 530.801 380.657V379.656C530.801 375.183 527.175 371.557 522.702 371.557Z" fill="#393E56"></path> <path d="M418.504 552.095C418.801 551.99 419.116 551.945 419.431 551.962C419.746 551.98 420.054 552.059 420.337 552.197C420.621 552.334 420.874 552.526 421.083 552.762C421.292 552.998 421.452 553.274 421.553 553.572C421.754 554.11 421.754 554.702 421.553 555.239C423.57 557.151 425.456 559.196 427.199 561.361C426.701 558.435 426.541 555.462 426.722 552.5C426.416 552.367 426.141 552.171 425.915 551.925C425.69 551.678 425.518 551.387 425.412 551.071C425.308 550.772 425.264 550.456 425.283 550.14C425.302 549.824 425.384 549.515 425.523 549.231C425.663 548.948 425.858 548.694 426.096 548.487C426.335 548.279 426.613 548.121 426.913 548.022C427.21 547.921 427.524 547.88 427.837 547.9C428.15 547.921 428.456 548.004 428.737 548.143C429.019 548.283 429.269 548.476 429.475 548.713C429.682 548.95 429.839 549.225 429.938 549.522C430.039 549.819 430.08 550.134 430.06 550.447C430.039 550.76 429.956 551.066 429.817 551.347C429.677 551.628 429.484 551.879 429.247 552.085C429.01 552.291 428.735 552.448 428.438 552.548C428.295 552.569 428.151 552.569 428.009 552.548C427.822 556.203 428.143 559.866 428.962 563.434C432.196 567.696 435.08 572.212 437.585 576.94C439.722 580.91 441.576 585.025 443.135 589.255L441.92 589.684C440.391 585.515 438.56 581.462 436.441 577.559C435.346 575.487 434.059 573.153 432.439 570.699C429.509 570.08 426.492 569.991 423.53 570.437C423.522 570.928 423.362 571.405 423.072 571.801C422.782 572.198 422.376 572.495 421.911 572.652C421.614 572.753 421.299 572.794 420.986 572.774C420.673 572.753 420.367 572.67 420.086 572.531C419.805 572.391 419.554 572.198 419.348 571.961C419.142 571.724 418.985 571.449 418.885 571.152C418.68 570.555 418.721 569.901 418.998 569.333C419.275 568.766 419.765 568.332 420.362 568.126C420.889 567.942 421.463 567.948 421.986 568.144C422.508 568.34 422.945 568.713 423.221 569.198C425.952 568.783 428.731 568.783 431.463 569.198C428.378 564.482 424.792 560.113 420.767 556.168C420.561 556.315 420.337 556.435 420.1 556.526C419.803 556.627 419.489 556.668 419.176 556.647C418.863 556.626 418.557 556.543 418.276 556.404C417.995 556.265 417.744 556.071 417.538 555.834C417.332 555.598 417.174 555.323 417.075 555.025C416.896 554.446 416.944 553.821 417.21 553.277C417.475 552.733 417.938 552.31 418.504 552.095V552.095Z" fill="#F7A611"></path> <path d="M447.453 569.294C444.928 567.687 442.138 566.541 439.211 565.911C439.025 566.382 438.694 566.781 438.266 567.051C437.837 567.321 437.334 567.447 436.829 567.412C436.198 567.412 435.592 567.161 435.145 566.714C434.698 566.267 434.447 565.661 434.447 565.03C434.447 564.398 434.698 563.792 435.145 563.345C435.592 562.899 436.198 562.648 436.829 562.648C437.4 562.64 437.955 562.838 438.392 563.206C438.829 563.573 439.12 564.085 439.211 564.649C441.914 565.229 444.515 566.209 446.929 567.555C445.709 562.055 443.896 556.704 441.522 551.595C441.269 551.631 441.012 551.631 440.76 551.595C440.128 551.595 439.522 551.344 439.075 550.897C438.629 550.45 438.378 549.844 438.378 549.213C438.378 548.581 438.629 547.975 439.075 547.528C439.522 547.082 440.128 546.831 440.76 546.831C441.391 546.831 441.997 547.082 442.444 547.528C442.891 547.975 443.142 548.581 443.142 549.213C443.123 549.778 442.903 550.319 442.522 550.737C443.725 553.244 444.775 555.822 445.667 558.455C446.204 555.537 447.1 552.697 448.335 549.999C448.091 549.766 447.898 549.485 447.771 549.173C447.644 548.861 447.584 548.525 447.596 548.188C447.596 547.557 447.847 546.951 448.294 546.504C448.741 546.057 449.347 545.806 449.978 545.806C450.61 545.806 451.216 546.057 451.663 546.504C452.11 546.951 452.36 547.557 452.36 548.188C452.36 548.82 452.11 549.426 451.663 549.873C451.216 550.32 450.61 550.57 449.978 550.57C449.828 550.593 449.676 550.593 449.526 550.57C448.063 553.934 447.076 557.486 446.596 561.123C448.117 566.25 449.216 571.492 449.883 576.797C450.495 581.265 450.789 585.77 450.764 590.28H449.478C449.489 585.843 449.202 581.41 448.621 577.012C448.382 574.939 448.049 572.152 447.453 569.294Z" fill="#F7A611"></path> <path d="M434.895 583.253C430.862 583.253 426.94 584.566 423.72 586.995C420.501 589.423 418.16 592.834 417.053 596.711H452.784C451.674 592.826 449.326 589.41 446.097 586.98C442.869 584.551 438.935 583.242 434.895 583.253Z" fill="#F7A611"></path> <path d="M414.007 587.421C411.224 587.422 408.516 588.33 406.295 590.006C404.073 591.682 402.457 594.036 401.691 596.711H426.322C425.556 594.036 423.941 591.682 421.719 590.006C419.497 588.33 416.79 587.422 414.007 587.421V587.421Z" fill="#F7A611"></path> <path d="M440.568 596.711C442.95 588.422 452.479 582.228 463.817 582.228C475.156 582.228 484.685 588.422 487.09 596.711H440.568Z" fill="#F7A611"></path> <path d="M335.167 239.128C342.401 239.128 348.265 233.609 348.265 226.8C348.265 219.992 342.401 214.472 335.167 214.472C327.933 214.472 322.068 219.992 322.068 226.8C322.068 233.609 327.933 239.128 335.167 239.128Z" fill="white"></path> <path d="M580.182 334.67C587.416 334.67 593.281 329.15 593.281 322.342C593.281 315.533 587.416 310.014 580.182 310.014C572.948 310.014 567.084 315.533 567.084 322.342C567.084 329.15 572.948 334.67 580.182 334.67Z" fill="white"></path> <path d="M258.887 461.031C265.695 461.031 271.214 455.512 271.214 448.703C271.214 441.895 265.695 436.375 258.887 436.375C252.078 436.375 246.559 441.895 246.559 448.703C246.559 455.512 252.078 461.031 258.887 461.031Z" fill="white"></path> <path d="M362.903 205.227C366.733 205.227 369.838 202.122 369.838 198.292C369.838 194.462 366.733 191.358 362.903 191.358C359.073 191.358 355.969 194.462 355.969 198.292C355.969 202.122 359.073 205.227 362.903 205.227Z" fill="white"></path> <path d="M83.9833 353.162C87.8131 353.162 90.9178 350.057 90.9178 346.227C90.9178 342.397 87.8131 339.293 83.9833 339.293C80.1535 339.293 77.0488 342.397 77.0488 346.227C77.0488 350.057 80.1535 353.162 83.9833 353.162Z" fill="white"></path> <path d="M432.247 237.587C436.077 237.587 439.181 234.483 439.181 230.653C439.181 226.823 436.077 223.718 432.247 223.718C428.417 223.718 425.312 226.823 425.312 230.653C425.312 234.483 428.417 237.587 432.247 237.587Z" fill="white"></path> </svg> 